<svg xmlns="http://www.w3.org/2000/svg" viewBox="0 0 900 620">
  <defs>
    <linearGradient id="goldGrad" x1="0%" y1="0%" x2="100%" y2="100%">
      <stop offset="0%" style="stop-color:#DAA520"/>
      <stop offset="50%" style="stop-color:#FFD700"/>
      <stop offset="100%" style="stop-color:#B8860B"/>
    </linearGradient>
    <linearGradient id="headerGrad" x1="0%" y1="0%" x2="0%" y2="100%">
      <stop offset="0%" style="stop-color:#3a2a1a"/>
      <stop offset="100%" style="stop-color:#1a0a00"/>
    </linearGradient>
    <linearGradient id="panelGrad" x1="0%" y1="0%" x2="0%" y2="100%">
      <stop offset="0%" style="stop-color:#1a1208"/>
      <stop offset="100%" style="stop-color:#0a0805"/>
    </linearGradient>
    <linearGradient id="botGrad" x1="0%" y1="0%" x2="0%" y2="100%">
      <stop offset="0%" style="stop-color:#2a4a1a"/>
      <stop offset="100%" style="stop-color:#1a2a0a"/>
    </linearGradient>
    <linearGradient id="clientGrad" x1="0%" y1="0%" x2="0%" y2="100%">
      <stop offset="0%" style="stop-color:#1a2a4a"/>
      <stop offset="100%" style="stop-color:#0a1a2a"/>
    </linearGradient>
    <filter id="glow">
      <feGaussianBlur stdDeviation="2" result="coloredBlur"/>
      <feMerge>
        <feMergeNode in="coloredBlur"/>
        <feMergeNode in="SourceGraphic"/>
      </feMerge>
    </filter>
    <filter id="shadow">
      <feDropShadow dx="3" dy="3" stdDeviation="4" flood-color="#000" flood-opacity="0.6"/>
    </filter>
  </defs>

  <rect width="900" height="620" fill="#0a0505"/>
  <rect x="10" y="10" width="880" height="600" fill="none" stroke="url(#goldGrad)" stroke-width="3" rx="8"/>

  <rect x="20" y="20" width="860" height="50" fill="url(#headerGrad)" rx="5" filter="url(#shadow)"/>
  <text x="450" y="52" text-anchor="middle" font-family="Georgia, serif" font-size="24" font-weight="bold" fill="url(#goldGrad)" filter="url(#glow)">⚔ SVONY BROWSER ARCHITECTURE ⚔</text>

  <rect x="40" y="85" width="820" height="350" rx="8" fill="url(#panelGrad)" stroke="#5a4a3a" stroke-width="2" filter="url(#shadow)"/>
  <rect x="40" y="85" width="820" height="35" fill="url(#headerGrad)" rx="8"/>
  <rect x="40" y="115" width="820" height="5" fill="#5a4a3a"/>
  <text x="450" y="110" text-anchor="middle" font-family="Georgia, serif" font-size="14" fill="#C0A050">🏰 MainWindow.xaml - Dual Panel Browser</text>

  <rect x="60" y="135" width="380" height="280" rx="6" fill="#0a0805" stroke="#4a8a4a" stroke-width="2"/>
  <rect x="60" y="135" width="380" height="30" fill="url(#botGrad)" rx="6"/>
  <text x="250" y="156" text-anchor="middle" font-family="Georgia, serif" font-size="13" font-weight="bold" fill="#88ff88">🤖 AutoEvony Bot Panel</text>
  <rect x="75" y="175" width="350" height="225" fill="#050503" stroke="#2a3a1a" rx="4"/>
  <text x="250" y="230" text-anchor="middle" font-family="Arial" font-size="11" fill="#4a6a3a">CefSharp Browser #1</text>
  <rect x="150" y="260" width="200" height="80" fill="#1a2a0a" stroke="#3a5a2a" rx="4"/>
  <text x="250" y="290" text-anchor="middle" font-family="Arial" font-size="16" font-weight="bold" fill="#66aa44">AutoEvony.swf</text>
  <text x="250" y="310" text-anchor="middle" font-family="Arial" font-size="10" fill="#4a6a3a">Bot Automation Interface</text>
  <text x="250" y="380" text-anchor="middle" font-family="Arial" font-size="9" fill="#3a5a2a">Flash PPAPI Plugin</text>

  <rect x="460" y="135" width="380" height="280" rx="6" fill="#0a0805" stroke="#4a4a8a" stroke-width="2"/>
  <rect x="460" y="135" width="380" height="30" fill="url(#clientGrad)" rx="6"/>
  <text x="650" y="156" text-anchor="middle" font-family="Georgia, serif" font-size="13" font-weight="bold" fill="#8888ff">🎮 Evony Client Panel</text>
  <rect x="475" y="175" width="350" height="225" fill="#050305" stroke="#1a2a3a" rx="4"/>
  <text x="650" y="230" text-anchor="middle" font-family="Arial" font-size="11" fill="#3a4a6a">CefSharp Browser #2</text>
  <rect x="550" y="260" width="200" height="80" fill="#0a1a2a" stroke="#2a3a5a" rx="4"/>
  <text x="650" y="290" text-anchor="middle" font-family="Arial" font-size="16" font-weight="bold" fill="#4488ff">EvonyClient1921.swf</text>
  <text x="650" y="310" text-anchor="middle" font-family="Arial" font-size="10" fill="#3a4a6a">Official Game Client</text>
  <text x="650" y="380" text-anchor="middle" font-family="Arial" font-size="9" fill="#2a3a5a">Flash PPAPI Plugin</text>

  <line x1="440" y1="150" x2="440" y2="400" stroke="#5a4a3a" stroke-width="3"/>
  <text x="450" y="275" font-family="Arial" font-size="20" fill="#8a7a5a">⇄</text>

  <rect x="300" y="455" width="300" height="60" rx="8" fill="#2a2008" stroke="url(#goldGrad)" stroke-width="2" filter="url(#shadow)"/>
  <text x="450" y="480" text-anchor="middle" font-family="Georgia, serif" font-size="14" font-weight="bold" fill="#FFD700">📦 SHARED CACHE</text>
  <text x="450" y="500" text-anchor="middle" font-family="Arial" font-size="10" fill="#B8860B">Cookies • SOL Files • Session Data</text>

  <path d="M250,415 Q250,455 350,475" stroke="#88ff88" stroke-width="2" fill="none" stroke-dasharray="5,3" marker-end="url(#arrowGreen)"/>
  <path d="M650,415 Q650,455 550,475" stroke="#8888ff" stroke-width="2" fill="none" stroke-dasharray="5,3" marker-end="url(#arrowBlue)"/>

  <rect x="300" y="530" width="300" height="50" rx="8" fill="#1a2020" stroke="#4a8a8a" stroke-width="2"/>
  <text x="450" y="555" text-anchor="middle" font-family="Georgia, serif" font-size="12" font-weight="bold" fill="#88ffff">🔍 Fiddler Proxy</text>
  <text x="450" y="572" text-anchor="middle" font-family="Arial" font-size="10" fill="#5a8a8a">127.0.0.1:8888 • Traffic Capture</text>

  <line x1="450" y1="515" x2="450" y2="530" stroke="#DAA520" stroke-width="2"/>

  <rect x="720" y="530" width="150" height="50" rx="6" fill="#1a1a2a" stroke="#6a5aaa" stroke-width="2"/>
  <text x="795" y="555" text-anchor="middle" font-family="Arial" font-size="11" font-weight="bold" fill="#aa88ff">🌐 Evony Server</text>
  <text x="795" y="570" text-anchor="middle" font-family="Arial" font-size="9" fill="#6a5aaa">cc1-cc5.evony.com</text>

  <line x1="600" y1="555" x2="720" y2="555" stroke="#aa88ff" stroke-width="2" stroke-dasharray="8,4"/>
</svg>
